<svg width="510" height="121" viewBox="0 0 510 121" fill="none" xmlns="http://www.w3.org/2000/svg">
<path d="M413.015 72.9704C408.638 69.7185 403.331 67.9648 397.881 67.9689C392.383 67.999 387.04 69.7909 382.633 73.0823C378.226 76.3737 374.987 80.9915 373.391 86.2595C371.795 91.5275 371.926 97.1687 373.764 102.357C375.602 107.545 379.05 112.008 383.605 115.092C376.82 80.4354 412.941 72.9891 413.015 72.9704Z" fill="url(#paint0_linear_619_126)"/>
<path d="M413.034 72.9705C413.034 72.9705 415.475 113.188 383.604 115.092C387.817 117.953 392.791 119.481 397.881 119.477C403.283 119.437 408.535 117.698 412.895 114.505C417.255 111.312 420.502 106.828 422.177 101.686C423.853 96.544 423.871 91.0047 422.23 85.8516C420.589 80.6985 417.372 76.1924 413.034 72.9705Z" fill="url(#paint1_linear_619_126)"/>
<path d="M488.144 73.2131C483.763 69.9562 478.448 68.2021 472.992 68.2116C467.494 68.2417 462.15 70.0336 457.743 73.325C453.337 76.6164 450.098 81.2342 448.502 86.5022C446.906 91.7702 447.036 97.4114 448.874 102.6C450.712 107.788 454.161 112.251 458.715 115.334C451.987 80.6782 488.144 73.3064 488.144 73.2131Z" fill="url(#paint2_linear_619_126)"/>
<path d="M488.144 73.213C488.144 73.213 490.586 113.412 458.715 115.334C462.573 117.934 467.066 119.431 471.71 119.665C476.354 119.898 480.974 118.859 485.073 116.659C489.171 114.46 492.593 111.182 494.97 107.18C497.347 103.178 498.589 98.6032 498.563 93.947C498.57 89.9154 497.63 85.9386 495.821 82.3372C494.011 78.7357 491.381 75.6104 488.144 73.213Z" fill="url(#paint3_linear_619_126)"/>
<path d="M76.0984 25.3997C68.4382 29.8413 66.4253 46.7682 66.4253 59.4027V93.7418C66.4253 110.949 51.1237 119.552 35.822 119.552C20.5203 119.552 5.08814 110.874 5.08814 93.7418V38.9673C5.08814 31.1851 2.55339 26.0715 0 25.3997H22.8127C20.2594 26.0715 17.706 31.1851 17.706 38.9673V93.7418C17.706 108.131 29.1123 115.241 40.5187 115.241C51.9251 115.241 63.7415 107.907 63.7415 93.7418V59.4027C63.7415 45.4245 63.0705 29.8413 54.2175 25.3997H76.0984Z" fill="white"/>
<path d="M126.011 109.25L110.578 76.7403L99.3957 86.6874V105.891C99.3957 113.692 101.949 118.806 104.484 119.477H82.398C84.9328 118.806 87.4861 113.692 87.4861 105.891V21.238C87.4861 13.4371 84.9328 8.34218 82.398 7.67032L99.3025 0V84.8025L121.314 58.675C125.041 53.8414 126.141 49.3438 122.656 47.2536H143.717L119.972 68.2115L139.56 109.269C140.516 111.665 141.984 113.821 143.862 115.588C145.739 117.355 147.979 118.689 150.426 119.496H126.812C129.365 118.806 129.365 116.379 126.011 109.25Z" fill="white"/>
<path d="M214.988 98.6314C212.695 107.104 200.618 119.869 183.583 119.869C137.547 119.869 140.231 46.8989 181.961 46.8989C200.748 46.8989 211.223 60.7464 211.223 79.8195H159.149C161.013 96.4852 172.195 114.103 192.156 114.103C201.829 114.103 211.763 104.958 213.646 98.1089L214.988 98.6314ZM159.074 77.6734H199.257C198.717 60.6159 190.796 50.3888 177.526 50.3888C164.256 50.3888 158.254 63.4339 159.018 77.6734H159.074Z" fill="white"/>
<path d="M280.071 60.4853C280.117 61.0278 280.043 61.5738 279.856 62.0849C279.669 62.596 279.372 63.0598 278.986 63.4439C278.601 63.828 278.136 64.1231 277.625 64.3083C277.114 64.4936 276.568 64.5646 276.027 64.5164C267.975 64.5164 261.806 54.1587 256.047 48.2427C245.833 48.2427 239.534 57.574 239.534 68.0063V105.891C239.534 113.692 242.087 118.806 244.641 119.477H222.629C225.164 118.806 227.717 113.692 227.717 105.891V68.0063C227.717 60.2054 225.164 55.0918 222.629 54.42L239.534 46.955V52.5537C243.612 48.8559 248.944 46.8537 254.444 46.955C268.217 46.899 280.071 53.6175 280.071 60.4853Z" fill="white"/>
<path d="M343.943 105.891V76.4603C343.943 59.1228 333.059 51.7324 322.323 51.7324C318.625 51.649 314.968 52.5203 311.704 54.2624C308.439 56.0046 305.678 58.559 303.685 61.6796V105.891C303.685 113.692 306.239 118.806 308.792 119.477H286.855C289.409 118.806 291.962 113.692 291.962 105.891V68.0062C291.962 60.2053 289.409 55.0917 286.855 54.4198L303.76 46.9548V58.5256C307.017 54.9431 310.982 52.0766 315.403 50.1074C319.824 48.1382 324.604 47.1092 329.443 47.0855C342.993 47.0855 355.741 55.6889 355.741 76.5163V105.947C355.741 113.748 358.294 118.862 360.717 119.533H338.836C341.39 118.806 343.943 113.692 343.943 105.891Z" fill="white"/>
<path d="M417.879 119.477V112.012C411.991 117.407 404.238 120.298 396.26 120.075C378.554 120.075 369.16 106.768 369.16 93.7418C369.16 76.5349 383.12 68.3421 396.931 68.3421C404.7 68.1674 412.227 71.0638 417.879 76.4043V72.2425C417.879 58.1337 414.245 48.7278 399.484 48.7278C393.576 54.6438 387.407 64.5909 379.355 64.5909C378.814 64.6463 378.268 64.5776 377.758 64.39C377.248 64.2025 376.787 63.901 376.41 63.5085C376.034 63.1202 375.743 62.6571 375.557 62.1491C375.371 61.6412 375.293 61.0997 375.329 60.5598C375.46 53.692 387.276 46.9735 400.956 46.9735C420.955 46.9735 429.677 56.9206 429.677 72.2425V105.966C429.677 113.767 432.231 118.88 434.784 119.552L417.879 119.477ZM417.879 110.146V98.0528C416.929 79.6329 405.262 70.059 395.197 70.059C387.146 70.059 379.896 76.1057 379.765 88.6096C379.635 101.113 387.537 115.876 404.591 115.876C409.418 115.969 416.128 112.74 417.879 110.202V110.146Z" fill="white"/>
<path d="M492.077 119.477V112.012C486.196 117.408 478.449 120.299 470.475 120.075C452.732 120 443.413 106.694 443.413 93.7418C443.413 76.5349 457.373 68.3421 471.202 68.3421C478.967 68.1642 486.489 71.0615 492.133 76.4043V72.2425C492.133 58.1337 488.517 48.7278 473.756 48.7278C467.848 54.6438 461.678 64.5909 453.627 64.5909C453.083 64.6478 452.534 64.5798 452.02 64.3923C451.507 64.2047 451.043 63.9025 450.663 63.5085C450.289 63.1193 450.002 62.6556 449.819 62.1475C449.635 61.6395 449.561 61.0984 449.601 60.5598C449.732 53.692 461.548 46.9735 475.228 46.9735C495.227 46.9735 503.949 56.9206 503.949 72.2425V105.966C503.949 113.767 506.502 118.88 509.056 119.552L492.077 119.477ZM492.077 110.146V98.0528C491.145 79.6329 479.459 70.059 469.395 70.059C461.343 70.059 454.093 76.1057 453.962 88.6096C453.832 101.113 461.753 115.876 478.788 115.876C483.634 115.969 490.343 112.74 492.077 110.202V110.146Z" fill="white"/>
<defs>
<linearGradient id="paint0_linear_619_126" x1="392.663" y1="67.9689" x2="392.663" y2="115.092" gradientUnits="userSpaceOnUse">
<stop stop-color="#ED8190"/>
<stop offset="1" stop-color="#E0B86B"/>
</linearGradient>
<linearGradient id="paint1_linear_619_126" x1="403.528" y1="119.477" x2="403.528" y2="72.9705" gradientUnits="userSpaceOnUse">
<stop stop-color="#AC98F1"/>
<stop offset="1" stop-color="#723EF4"/>
</linearGradient>
<linearGradient id="paint2_linear_619_126" x1="467.81" y1="68.2862" x2="467.81" y2="115.409" gradientUnits="userSpaceOnUse">
<stop stop-color="#ED8190"/>
<stop offset="1" stop-color="#E0B86B"/>
</linearGradient>
<linearGradient id="paint3_linear_619_126" x1="478.676" y1="119.776" x2="478.676" y2="73.2877" gradientUnits="userSpaceOnUse">
<stop stop-color="#AC98F1"/>
<stop offset="1" stop-color="#723EF4"/>
</linearGradient>
</defs>
</svg>
