<?xml version="1.0" encoding="UTF-8" standalone="no"?><!DOCTYPE svg PUBLIC "-//W3C//DTD SVG 1.1//EN" "http://www.w3.org/Graphics/SVG/1.1/DTD/svg11.dtd"><svg width="100%" height="100%" viewBox="0 0 91 91" version="1.1" xmlns="http://www.w3.org/2000/svg" xmlns:xlink="http://www.w3.org/1999/xlink" xml:space="preserve" xmlns:serif="http://www.serif.com/" style="fill-rule:evenodd;clip-rule:evenodd;stroke-linejoin:round;stroke-miterlimit:2;"><g><path d="M14.038,12.627c0.211,2.096 0.289,4.216 0.402,6.336c0.67,11.824 1.159,23.584 0.974,35.446c-0.052,3.09 -0.125,6.252 0.848,9.183c1.449,4.343 5.07,7.697 9.14,9.802c5.165,2.673 11.428,4.188 17.207,4.692c-2.607,-0.22 -1.692,-15.612 -1.738,-17.538c-0.272,-9.026 -0.458,-18.024 -0,-27.027c0.188,-3.612 -0.055,-7.428 -1.99,-10.484c-1.266,-2.001 -3.187,-3.524 -5.215,-4.726c-2.925,-1.717 -6.158,-2.826 -9.434,-3.663c-3.1,-0.788 -7.034,-2.12 -10.194,-2.021Z" style="fill:url(#_Linear1);fill-rule:nonzero;"/><path d="M77.794,40.965l-27.468,-0.553c-0.459,-0.008 -0.903,0.167 -1.234,0.484c-0.331,0.318 -0.522,0.754 -0.533,1.213l-0.675,33.509c-0.004,0.271 0.055,0.54 0.174,0.784c0.118,0.243 0.292,0.457 0.507,0.621c0.215,0.166 0.466,0.278 0.733,0.328c0.266,0.051 0.541,0.038 0.802,-0.036c7.265,-2.129 29.547,-10.622 29.391,-34.641c-0.007,-0.449 -0.188,-0.878 -0.505,-1.196c-0.316,-0.319 -0.743,-0.502 -1.192,-0.513Z" style="fill:url(#_Linear2);fill-rule:nonzero;"/><path d="M56.386,36.752c-3.453,-17.764 14.977,-21.569 14.977,-21.569c-0,0 1.254,20.593 -14.977,21.569Z" style="fill:url(#_Linear3);fill-rule:nonzero;"/><path d="M71.386,15.183c-2.226,-1.666 -4.931,-2.565 -7.712,-2.563c-7.192,0 -13.021,5.905 -13.021,13.188c-0.006,2.155 0.515,4.279 1.519,6.187c1.003,1.907 2.458,3.54 4.237,4.757c-3.447,-17.743 14.933,-21.56 14.977,-21.569Z" style="fill:url(#_Linear4);fill-rule:nonzero;"/><path d="M71.389,15.183c-0,0.023 1.242,20.593 -14.98,21.572c2.141,1.462 4.673,2.243 7.265,2.241c7.19,0 13.022,-5.905 13.022,-13.188c0.004,-2.062 -0.473,-4.096 -1.395,-5.941c-0.921,-1.844 -2.261,-3.448 -3.912,-4.684Z" style="fill:url(#_Linear5);fill-rule:nonzero;"/><path d="M18.962,15.053c1.714,0.836 3.241,2.009 4.49,3.449c1.124,1.301 1.971,2.817 2.489,4.457c0.918,2.875 1.034,6.472 0.947,9.872c-0.223,8.476 -0.133,16.949 -0,25.446c0.029,1.816 0.307,16.055 1.541,16.272c-2.749,-0.478 -6.44,-1.659 -8.896,-4.173c-1.938,-1.983 -3.665,-5.137 -4.345,-9.229c-0.464,-2.763 -0.429,-5.74 -0.403,-8.65c0.093,-11.167 -0.145,-22.244 -0.463,-33.375c-0.058,-1.996 -0.168,-4.095 -0.27,-6.082c1.489,-0.081 3.439,1.277 4.91,2.013Z" style="fill:url(#_Linear6);fill-rule:nonzero;"/></g><defs><linearGradient id="_Linear1" x1="0" y1="0" x2="1" y2="0" gradientUnits="userSpaceOnUse" gradientTransform="matrix(12.6805,-64.2272,64.2272,12.6805,21.665,79.0563)"><stop offset="0" style="stop-color:#926ef5;stop-opacity:1"/><stop offset="1" style="stop-color:#6225f4;stop-opacity:1"/></linearGradient><linearGradient id="_Linear2" x1="0" y1="0" x2="1" y2="0" gradientUnits="userSpaceOnUse" gradientTransform="matrix(2.26406e-15,-36.9749,36.9749,2.26406e-15,63.6976,77.3872)"><stop offset="0" style="stop-color:#ddc661;stop-opacity:1"/><stop offset="1" style="stop-color:#ef7697;stop-opacity:1"/></linearGradient><linearGradient id="_Linear3" x1="0" y1="0" x2="1" y2="0" gradientUnits="userSpaceOnUse" gradientTransform="matrix(15.4315,0,0,15.4315,55.9546,25.9675)"><stop offset="0" style="stop-color:#ea8e87;stop-opacity:1"/><stop offset="1" style="stop-color:#7542f4;stop-opacity:1"/></linearGradient><linearGradient id="_Linear4" x1="0" y1="0" x2="1" y2="0" gradientUnits="userSpaceOnUse" gradientTransform="matrix(1.47763e-15,24.1315,-24.1315,1.47763e-15,61.021,12.6202)"><stop offset="0" style="stop-color:#ed8190;stop-opacity:1"/><stop offset="1" style="stop-color:#e0b86b;stop-opacity:1"/></linearGradient><linearGradient id="_Linear5" x1="0" y1="0" x2="1" y2="0" gradientUnits="userSpaceOnUse" gradientTransform="matrix(1.45814e-15,-23.8132,23.8132,1.45814e-15,66.5511,38.9963)"><stop offset="0" style="stop-color:#ac98f1;stop-opacity:1"/><stop offset="1" style="stop-color:#723ef4;stop-opacity:1"/></linearGradient><linearGradient id="_Linear6" x1="0" y1="0" x2="1" y2="0" gradientUnits="userSpaceOnUse" gradientTransform="matrix(3.76597e-15,-61.503,61.503,3.76597e-15,21.2304,74.5489)"><stop offset="0" style="stop-color:#ac98f1;stop-opacity:1"/><stop offset="1" style="stop-color:#7b52f2;stop-opacity:1"/></linearGradient></defs></svg>